<svg xmlns="http://www.w3.org/2000/svg" viewBox="0 0 32 32" id="impostor">
  <path d="M17.293 7.293a1 1 0 1 1 1.414 1.414 1 1 0 0 1-1.414-1.414zm-2 2-1 1a1 1 0 1 0 1.414 1.414l1-1a1 1 0 1 0-1.414-1.414zM27 20v8.173A2.83 2.83 0 0 1 24.173 31h-2.346A2.83 2.83 0 0 1 19 28.173v-2.195c-.36.084-.695.13-1 .146v2.05A2.83 2.83 0 0 1 15.173 31h-2.346A2.83 2.83 0 0 1 10 28.173V26H8.827A2.83 2.83 0 0 1 6 23.173v-2.759l-1.707-1.707c-.74-.74-.914-1.886-.456-2.992.393-.947 1.13-1.583 1.922-1.692-1.277-2.24-.9-4.961 1.133-7.082l3.646-3.485c1.084-1.132 2.313-1.733 3.623-1.755 1.444-.018 2.838.64 4.2 1.97.145.142.22.32.26.503a4.506 4.506 0 0 1 2.047 1.174 4.558 4.558 0 0 1 1.273 2.654c.01 0 .021.003.032.003.04 0 .077.009.117.012.03.005.06.003.09.01.015.004.029.012.044.017.176.04.346.112.483.249.188.188.28.433.287.679l.611 1.833a1 1 0 0 1-1.265 1.265l-1.467-.49c-.07.084-.127.175-.205.254l-1.073 1.083.475 1.423a1 1 0 0 1-1.265 1.265l-1.497-.499L13.414 19h2.968l.723-1.447c.34-.678 1.45-.678 1.79 0L19.618 19h1.764l.724-1.447c.338-.678 1.45-.678 1.789 0L24.618 19H26a1 1 0 0 1 1 1zM19.248 6.755A2.523 2.523 0 0 0 17.443 6c-.682 0-1.323.268-1.805.755l-2.516 2.54a2.617 2.617 0 0 0 0 3.671c.808.816 2.114.94 3.085.388.028-.037.052-.077.086-.111l1.414-1.414a.993.993 0 0 1 .21-.16l1.67-1.67a2.618 2.618 0 0 0-.34-3.244zM8.256 14.01a.975.975 0 0 1 .08.088l3.19 3.963 2.445-2.445a4.511 4.511 0 0 1-2.27-1.242 4.623 4.623 0 0 1 0-6.485l2.516-2.54a4.516 4.516 0 0 1 1.7-1.068c-.604-.383-1.192-.595-1.723-.58-.757.013-1.511.407-2.243 1.171L8.304 8.356c-1.702 1.776-1.733 4.007-.048 5.653zm-2.549 3.284L7.414 19h2.303l-2.458-3.052C7.175 15.97 7.092 16 7 16H6c-.052.034-.307.329-.39.72-.03.147-.06.416.097.573zM10 24v-3H8v2.173c0 .456.37.827.827.827H10zm15 3v-6H12v7.173c0 .456.37.827.827.827h2.346c.456 0 .827-.37.827-.827V26c0-.06.024-.113.035-.171l-.05-.02a1 1 0 0 1 .878-1.798c.09.037 1.446.58 3.582-.843a.999.999 0 1 1 1.11 1.664 9.466 9.466 0 0 1-.555.342v3c0 .455.37.826.827.826h2.346c.456 0 .827-.37.827-.827V27z"></path>
</svg>
