<svg xmlns="http://www.w3.org/2000/svg" viewBox="0 0 32 32" id="Pet">
  <path d="M23.065 12.007C22.034 9.095 19.26 7 16 7s-6.034 2.095-7.065 5.006C4.762 13.29 2 15.686 2 18.5 2 22.706 8.15 26 16 26s14-3.294 14-7.5c0-2.813-2.762-5.21-6.935-6.493zM16 9c3.033 0 5.5 2.467 5.5 5.5 0 1.731-.653 3.5-5.5 3.5s-5.5-1.769-5.5-3.5c0-3.033 2.467-5.5 5.5-5.5zm0 15c-7.178 0-12-2.844-12-5.5 0-1.56 1.682-3.177 4.513-4.252-.003.085-.013.167-.013.252 0 3.65 2.523 5.5 7.5 5.5s7.5-1.85 7.5-5.5c0-.085-.01-.168-.013-.252C26.318 15.323 28 16.94 28 18.5c0 2.656-4.822 5.5-12 5.5zm-8-5.5c0 .827-.673 1.5-1.5 1.5S5 19.327 5 18.5 5.673 17 6.5 17s1.5.673 1.5 1.5zm5 3c0 .827-.673 1.5-1.5 1.5s-1.5-.673-1.5-1.5.673-1.5 1.5-1.5 1.5.673 1.5 1.5zm9 0c0 .827-.673 1.5-1.5 1.5s-1.5-.673-1.5-1.5.673-1.5 1.5-1.5 1.5.673 1.5 1.5zm5-3c0 .827-.673 1.5-1.5 1.5s-1.5-.673-1.5-1.5.673-1.5 1.5-1.5 1.5.673 1.5 1.5zM18 15a1 1 0 1 1 2 0 1 1 0 0 1-2 0zm-5 0a1 1 0 0 1 1-1h2a1 1 0 0 1 0 2h-2a1 1 0 0 1-1-1z" fill="#b51831" class="color000000 svgShape"></path>
</svg>
